<svg xmlns="http://www.w3.org/2000/svg" xmlns:xlink="http://www.w3.org/1999/xlink" width="1366" zoomAndPan="magnify" viewBox="0 0 1024.5 576" height="768" preserveAspectRatio="xMidYMid meet" version="1.0"><defs><clipPath id="08053e7d1a"><path d="M 0 0.140625 L 231 0.140625 L 231 183 L 0 183 Z M 0 0.140625 " clip-rule="nonzero"/></clipPath><clipPath id="37aa519a57"><path d="M 755 341 L 1024 341 L 1024 575.859375 L 755 575.859375 Z M 755 341 " clip-rule="nonzero"/></clipPath><clipPath id="76d6cca418"><path d="M 0 390 L 267.96875 390 L 267.96875 575.859375 L 0 575.859375 Z M 0 390 " clip-rule="nonzero"/></clipPath><clipPath id="c6802b1794"><path d="M 378 0.140625 L 682 0.140625 L 682 96 L 378 96 Z M 378 0.140625 " clip-rule="nonzero"/></clipPath><clipPath id="038c71f2e9"><path d="M 825 0.140625 L 1024 0.140625 L 1024 213.925781 L 825 213.925781 Z M 825 0.140625 " clip-rule="nonzero"/></clipPath></defs><g clip-path="url(#08053e7d1a)"><path fill="#93cc56" d="M 82.492188 -32.167969 C 61.9375 -22.835938 37.804688 -26.480469 15.734375 -26.984375 C -6.355469 -27.488281 -37.625 -25.730469 -43.882812 1.25 C -46.273438 11.566406 -43.527344 23.140625 -36.746094 31.34375 C -29.601562 39.992188 -18.0625 45.585938 -15.109375 56.480469 C -12.769531 65.097656 -16.859375 74.050781 -22.078125 80.976562 C -30.453125 92.085938 -41.847656 100.382812 -50.53125 111.238281 C -59.21875 122.089844 -65.082031 137.300781 -59.746094 150.601562 C -54.378906 163.980469 -39.910156 170.632812 -26.558594 174.84375 C 1.695312 183.753906 33.539062 187.40625 59.046875 173.066406 C 74.152344 164.574219 86.121094 150.253906 102.5625 144.894531 C 123.828125 137.964844 147.171875 147.613281 169.507812 145.820312 C 196.121094 143.683594 220.152344 123.640625 227.738281 97.253906 C 235.324219 70.867188 226.003906 39.742188 205.152344 21.835938 C 195.394531 13.453125 183.585938 7.902344 174.148438 -0.863281 C 166.730469 -7.753906 160.960938 -16.542969 157.519531 -26.179688 C 153.878906 -36.386719 152.210938 -48.4375 143.761719 -54.964844 C 135.105469 -61.644531 122.765625 -59.40625 113.617188 -53.96875 C 104.464844 -48.535156 97.054688 -40.398438 87.894531 -34.980469 C 86.125 -33.929688 84.324219 -33 82.492188 -32.167969 " fill-opacity="1" fill-rule="nonzero"/></g><g clip-path="url(#37aa519a57)"><path fill="#93cc56" d="M 800.109375 402.03125 C 789.753906 402.007812 778.710938 401.199219 769.785156 406.824219 C 756.339844 415.296875 753.222656 435.5625 757.949219 451.511719 C 762.671875 467.460938 773.230469 480.484375 782.273438 494.117188 C 791.3125 507.753906 799.308594 523.703125 797.632812 540.339844 C 796.535156 551.222656 791.351562 561.363281 790.941406 572.300781 C 790.375 587.308594 799.109375 601.316406 810.382812 610.222656 C 821.65625 619.128906 835.253906 623.84375 848.585938 628.414062 C 866.808594 634.660156 886.109375 640.96875 904.757812 636.40625 C 936.648438 628.59375 956.546875 591.710938 988.175781 582.753906 C 1009.542969 576.707031 1032.808594 584.542969 1054.050781 578 C 1076.945312 570.949219 1093.425781 547.472656 1097.835938 522.355469 C 1102.25 497.238281 1096.046875 471.035156 1085.113281 448.328125 C 1074.179688 425.617188 1058.746094 405.828125 1043.4375 386.238281 C 1030.671875 369.90625 1017.015625 352.886719 998.332031 345.648438 C 975.96875 336.988281 950.546875 343.492188 928.996094 351.867188 C 914.75 357.40625 903.039062 367.925781 890.179688 376.191406 C 876.398438 385.046875 860.757812 391.480469 845.242188 395.816406 C 830.523438 399.925781 815.320312 402.058594 800.109375 402.03125 " fill-opacity="1" fill-rule="nonzero"/></g><g clip-path="url(#76d6cca418)"><path fill="#4c81cb" d="M -93.023438 398.488281 C -108.605469 406.582031 -119.511719 422.0625 -124.738281 438.820312 C -129.96875 455.582031 -129.992188 473.574219 -127.859375 491 C -126.453125 502.4375 -124.15625 513.6875 -120.96875 524.761719 C -117.78125 535.832031 -113.742188 546.582031 -108.855469 557.015625 C -106.816406 561.363281 -104.527344 565.777344 -100.804688 568.808594 C -97.53125 571.484375 -93.390625 572.863281 -89.28125 573.890625 C -64.289062 580.121094 -37.839844 574.851562 -12.308594 578.238281 C 14.480469 581.792969 39.046875 594.664062 65.0625 601.980469 C 91.132812 609.3125 118.4375 611.015625 145.519531 611.511719 C 177.390625 612.097656 211.007812 610.589844 238.121094 593.828125 C 246.332031 588.753906 253.835938 582.25 258.847656 574.003906 C 265.980469 562.277344 267.546875 548.03125 267.726562 534.304688 C 267.859375 524.425781 267.335938 514.382812 264.140625 505.03125 C 258.457031 488.359375 244.925781 475.582031 230.617188 465.324219 C 216.308594 455.066406 200.648438 446.542969 187.707031 434.59375 C 174.140625 422.0625 163.46875 405.746094 146.96875 397.449219 C 132.136719 389.988281 114.722656 390.136719 98.160156 391.34375 C 71.011719 393.320312 44.046875 397.699219 16.800781 398.453125 C 5.3125 398.765625 -6.667969 398.898438 -18.117188 398.164062 C -29.945312 397.40625 -41.5 392.925781 -53.4375 391.96875 C -66.941406 390.875 -80.839844 392.164062 -93.023438 398.488281 Z M -93.023438 398.488281 " fill-opacity="1" fill-rule="nonzero"/></g><g clip-path="url(#c6802b1794)"><path fill="#c99226" d="M 391.46875 -3.878906 C 382.667969 4.59375 377.699219 16.902344 378.160156 29.109375 C 378.769531 45.132812 388.460938 59.933594 401.496094 69.265625 C 414.527344 78.601562 430.558594 82.980469 446.515625 84.558594 C 460.222656 85.910156 474.039062 85.320312 487.800781 85.898438 C 514.050781 87 539.9375 92.339844 566.101562 94.71875 C 592.265625 97.097656 619.492188 96.335938 643.582031 85.851562 C 651.382812 82.457031 658.859375 77.996094 664.652344 71.769531 C 677.421875 58.054688 680.3125 38.046875 681.476562 19.351562 C 682.035156 10.378906 682.238281 0.929688 678.140625 -7.074219 C 673.351562 -16.429688 663.320312 -22.203125 653.050781 -24.441406 C 642.78125 -26.679688 632.125 -25.882812 621.636719 -25.167969 C 588.800781 -22.9375 555.910156 -21.621094 523.015625 -20.757812 C 506.726562 -20.332031 490.441406 -20 474.152344 -19.761719 C 459.230469 -19.527344 442.371094 -21.527344 427.722656 -18.636719 C 414.929688 -16.113281 401.167969 -13.210938 391.46875 -3.878906 Z M 391.46875 -3.878906 " fill-opacity="1" fill-rule="nonzero"/></g><g clip-path="url(#038c71f2e9)"><path fill="#4c81cb" d="M 969.878906 -26.5 L 964.90625 -26.402344 C 938.539062 -25.234375 912.277344 -15.960938 886.125 1.410156 C 860.433594 20.476562 843.816406 43.617188 836.273438 70.835938 C 834.5 78.289062 834.96875 86.527344 837.6875 95.554688 C 828.929688 111.679688 824.808594 125.621094 825.324219 137.378906 C 825.679688 144.875 826.59375 150.515625 828.070312 154.300781 C 830.925781 164.304688 834.109375 171.992188 837.621094 177.375 C 845.175781 189.667969 856.171875 198.839844 870.617188 204.898438 C 887.214844 210.996094 902.949219 213.894531 917.820312 213.59375 C 948.007812 212.675781 976.671875 203.464844 1003.816406 185.972656 C 1015.980469 177.628906 1027.804688 165.933594 1039.285156 150.890625 C 1044.804688 144.230469 1049.628906 132.734375 1053.757812 116.40625 C 1056.617188 101.394531 1057.792969 82.078125 1057.289062 58.460938 C 1056.84375 39.972656 1053.828125 25.496094 1048.242188 15.035156 C 1030.359375 -11.898438 1004.238281 -25.742188 969.878906 -26.5 " fill-opacity="1" fill-rule="nonzero"/></g></svg>