<svg xmlns="http://www.w3.org/2000/svg" xmlns:xlink="http://www.w3.org/1999/xlink" width="1366" zoomAndPan="magnify" viewBox="0 0 1024.5 576" height="768" preserveAspectRatio="xMidYMid meet" version="1.0"><defs><clipPath id="1dc3e5de09"><path d="M 749 0.140625 L 1024 0.140625 L 1024 235 L 749 235 Z M 749 0.140625 " clip-rule="nonzero"/></clipPath><clipPath id="3b0c22c6a2"><path d="M 0 0.140625 L 287 0.140625 L 287 180 L 0 180 Z M 0 0.140625 " clip-rule="nonzero"/></clipPath><clipPath id="25468aa85f"><path d="M 0 396 L 235 396 L 235 575.859375 L 0 575.859375 Z M 0 396 " clip-rule="nonzero"/></clipPath><clipPath id="9e320436fb"><path d="M 378 494 L 682 494 L 682 575.859375 L 378 575.859375 Z M 378 494 " clip-rule="nonzero"/></clipPath><clipPath id="6bae0ee52a"><path d="M 850 393.746094 L 1024 393.746094 L 1024 575.859375 L 850 575.859375 Z M 850 393.746094 " clip-rule="nonzero"/></clipPath></defs><g clip-path="url(#1dc3e5de09)"><path fill="#93cc56" d="M 1049.046875 173.535156 C 1059.398438 173.554688 1070.441406 174.367188 1079.371094 168.738281 C 1092.816406 160.269531 1095.929688 140.003906 1091.207031 124.054688 C 1086.480469 108.105469 1075.921875 95.082031 1066.882812 81.445312 C 1057.839844 67.8125 1049.847656 51.863281 1051.523438 35.222656 C 1052.617188 24.34375 1057.804688 14.199219 1058.214844 3.265625 C 1058.78125 -11.746094 1050.042969 -25.753906 1038.769531 -34.660156 C 1027.5 -43.566406 1013.898438 -48.277344 1000.566406 -52.851562 C 982.34375 -59.097656 963.046875 -65.40625 944.398438 -60.839844 C 912.507812 -53.03125 892.605469 -16.144531 860.980469 -7.191406 C 839.609375 -1.140625 816.34375 -8.976562 795.101562 -2.4375 C 772.207031 4.613281 755.726562 28.089844 751.316406 53.210938 C 746.90625 78.328125 753.109375 104.527344 764.039062 127.234375 C 774.972656 149.949219 790.410156 169.738281 805.71875 189.324219 C 818.480469 205.65625 832.136719 222.675781 850.824219 229.914062 C 873.183594 238.578125 898.609375 232.070312 920.160156 223.695312 C 934.402344 218.160156 946.113281 207.636719 958.972656 199.375 C 972.753906 190.519531 988.398438 184.085938 1003.910156 179.75 C 1018.628906 175.640625 1033.835938 173.503906 1049.046875 173.535156 " fill-opacity="1" fill-rule="nonzero"/></g><g clip-path="url(#3b0c22c6a2)"><path fill="#4c81cb" d="M 250.808594 171.796875 C 266.390625 163.703125 277.296875 148.222656 282.523438 131.460938 C 287.75 114.703125 287.777344 96.710938 285.640625 79.28125 C 284.238281 67.847656 281.941406 56.59375 278.753906 45.523438 C 275.566406 34.453125 271.527344 23.699219 266.640625 13.269531 C 264.601562 8.921875 262.3125 4.507812 258.589844 1.472656 C 255.316406 -1.203125 251.175781 -2.582031 247.066406 -3.609375 C 222.074219 -9.835938 195.625 -4.570312 170.09375 -7.957031 C 143.300781 -11.507812 118.734375 -24.378906 92.722656 -31.699219 C 66.652344 -39.027344 39.347656 -40.730469 12.265625 -41.226562 C -19.605469 -41.8125 -53.226562 -40.308594 -80.335938 -23.546875 C -88.546875 -18.472656 -96.050781 -11.964844 -101.066406 -3.71875 C -108.195312 8.007812 -109.761719 22.253906 -109.941406 35.980469 C -110.074219 45.859375 -109.550781 55.902344 -106.355469 65.253906 C -100.671875 81.921875 -87.140625 94.703125 -72.832031 104.960938 C -58.523438 115.214844 -42.863281 123.742188 -29.921875 135.691406 C -16.359375 148.21875 -5.683594 164.539062 10.816406 172.835938 C 25.648438 180.296875 43.058594 180.148438 59.621094 178.941406 C 86.773438 176.960938 113.738281 172.585938 140.980469 171.828125 C 152.472656 171.519531 164.453125 171.386719 175.902344 172.121094 C 187.730469 172.878906 199.285156 177.359375 211.222656 178.316406 C 224.726562 179.40625 238.625 178.121094 250.808594 171.796875 Z M 250.808594 171.796875 " fill-opacity="1" fill-rule="nonzero"/></g><g clip-path="url(#25468aa85f)"><path fill="#93cc56" d="M 86.203125 423.238281 C 65.648438 432.570312 41.515625 428.925781 19.445312 428.421875 C -2.644531 427.917969 -33.914062 429.675781 -40.171875 456.65625 C -42.5625 466.972656 -39.816406 478.546875 -33.035156 486.753906 C -25.890625 495.398438 -14.351562 500.992188 -11.398438 511.886719 C -9.058594 520.503906 -13.148438 529.457031 -18.367188 536.382812 C -26.742188 547.496094 -38.136719 555.789062 -46.820312 566.644531 C -55.507812 577.496094 -61.367188 592.707031 -56.035156 606.007812 C -50.667969 619.386719 -36.195312 626.039062 -22.84375 630.25 C 5.40625 639.160156 37.25 642.8125 62.757812 628.472656 C 77.863281 619.980469 89.832031 605.660156 106.273438 600.300781 C 127.539062 593.371094 150.882812 603.019531 173.222656 601.226562 C 199.832031 599.089844 223.863281 579.046875 231.449219 552.660156 C 239.035156 526.277344 229.714844 495.148438 208.863281 477.242188 C 199.105469 468.859375 187.296875 463.308594 177.859375 454.542969 C 170.441406 447.652344 164.671875 438.863281 161.230469 429.226562 C 157.589844 419.019531 155.921875 406.96875 147.472656 400.445312 C 138.816406 393.761719 126.476562 396.003906 117.328125 401.4375 C 108.175781 406.871094 100.765625 415.007812 91.605469 420.425781 C 89.835938 421.476562 88.035156 422.410156 86.203125 423.238281 " fill-opacity="1" fill-rule="nonzero"/></g><g clip-path="url(#9e320436fb)"><path fill="#c99226" d="M 391.46875 516.679688 C 382.667969 525.148438 377.699219 537.460938 378.160156 549.667969 C 378.769531 565.6875 388.460938 580.488281 401.496094 589.824219 C 414.527344 599.160156 430.558594 603.539062 446.515625 605.113281 C 460.222656 606.46875 474.039062 605.878906 487.800781 606.457031 C 514.050781 607.558594 539.9375 612.894531 566.101562 615.273438 C 592.265625 617.652344 619.492188 616.894531 643.582031 606.410156 C 651.382812 603.015625 658.859375 598.554688 664.652344 592.324219 C 677.421875 578.613281 680.3125 558.605469 681.476562 539.90625 C 682.035156 530.933594 682.238281 521.488281 678.140625 513.484375 C 673.351562 504.125 663.320312 498.355469 653.050781 496.117188 C 642.78125 493.878906 632.125 494.675781 621.636719 495.386719 C 588.800781 497.621094 555.910156 498.9375 523.015625 499.796875 C 506.726562 500.222656 490.441406 500.554688 474.152344 500.796875 C 459.230469 501.03125 442.371094 499.027344 427.722656 501.917969 C 414.929688 504.445312 401.167969 507.347656 391.46875 516.679688 Z M 391.46875 516.679688 " fill-opacity="1" fill-rule="nonzero"/></g><g clip-path="url(#6bae0ee52a)"><path fill="#4c81cb" d="M 995.011719 393.953125 L 990.039062 394.050781 C 963.671875 395.222656 937.414062 404.492188 911.257812 421.867188 C 885.570312 440.929688 868.953125 464.074219 861.410156 491.292969 C 859.636719 498.746094 860.105469 506.984375 862.820312 516.007812 C 854.066406 532.136719 849.945312 546.078125 850.460938 557.835938 C 850.8125 565.332031 851.730469 570.972656 853.207031 574.757812 C 856.0625 584.757812 859.246094 592.449219 862.753906 597.832031 C 870.308594 610.121094 881.308594 619.296875 895.753906 625.355469 C 912.351562 631.449219 928.085938 634.351562 942.953125 634.050781 C 973.140625 633.128906 1001.808594 623.921875 1028.953125 606.425781 C 1041.117188 598.082031 1052.941406 586.390625 1064.421875 571.347656 C 1069.9375 564.6875 1074.761719 553.191406 1078.890625 536.859375 C 1081.753906 521.851562 1082.929688 502.535156 1082.421875 478.914062 C 1081.976562 460.425781 1078.960938 445.953125 1073.375 435.492188 C 1055.496094 408.558594 1029.375 394.714844 995.011719 393.953125 " fill-opacity="1" fill-rule="nonzero"/></g></svg>