<svg id="visual" viewBox="0 0 900 600" width="900" height="600" xmlns="http://www.w3.org/2000/svg" xmlns:xlink="http://www.w3.org/1999/xlink" version="1.1"><rect x="0" y="0" width="900" height="600" fill="#e8e2d6"></rect><path d="M0 203L37.5 201.2C75 199.3 150 195.7 225 217C300 238.3 375 284.7 450 274.3C525 264 600 197 675 175C750 153 825 176 862.5 187.5L900 199L900 601L862.5 601C825 601 750 601 675 601C600 601 525 601 450 601C375 601 300 601 225 601C150 601 75 601 37.5 601L0 601Z" fill="#93cc56"></path><path d="M0 379L37.5 371.3C75 363.7 150 348.3 225 362.2C300 376 375 419 450 429C525 439 600 416 675 406.8C750 397.7 825 402.3 862.5 404.7L900 407L900 601L862.5 601C825 601 750 601 675 601C600 601 525 601 450 601C375 601 300 601 225 601C150 601 75 601 37.5 601L0 601Z" fill="#20a9e3"></path></svg>