<svg id="visual" viewBox="0 0 900 600" width="900" height="600" xmlns="http://www.w3.org/2000/svg" xmlns:xlink="http://www.w3.org/1999/xlink" version="1.1"><g><g transform="translate(777 196)"><path d="M0 -88.8L88.8 0L0 88.8L-88.8 0Z" fill="#B48840"></path></g><g transform="translate(207 63)"><path d="M0 -45L45 0L0 45L-45 0Z" fill="#B48840"></path></g><g transform="translate(639 560)"><path d="M0 -67L67 0L0 67L-67 0Z" fill="#B48840"></path></g><g transform="translate(239 535)"><path d="M0 -83L83 0L0 83L-83 0Z" fill="#B48840"></path></g><g transform="translate(25 197)"><path d="M0 -41L41 0L0 41L-41 0Z" fill="#B48840"></path></g><g transform="translate(611 324)"><path d="M0 -61L61 0L0 61L-61 0Z" fill="#B48840"></path></g><g transform="translate(335 323)"><path d="M0 -35L35 0L0 35L-35 0Z" fill="#B48840"></path></g><g transform="translate(3 20)"><path d="M0 -55L55 0L0 55L-55 0Z" fill="#B48840"></path></g></g></svg>