<svg id="visual" viewBox="0 0 900 450" width="900" height="450" xmlns="http://www.w3.org/2000/svg" xmlns:xlink="http://www.w3.org/1999/xlink" version="1.1"><path d="M0 55L37.5 58.8C75 62.7 150 70.3 225 74.2C300 78 375 78 450 77.2C525 76.3 600 74.7 675 73.8C750 73 825 73 862.5 73L900 73L900 0L862.5 0C825 0 750 0 675 0C600 0 525 0 450 0C375 0 300 0 225 0C150 0 75 0 37.5 0L0 0Z" fill="#ffffff"></path><path d="M0 204L37.5 201.7C75 199.3 150 194.7 225 197.7C300 200.7 375 211.3 450 216.7C525 222 600 222 675 217.5C750 213 825 204 862.5 199.5L900 195L900 71L862.5 71C825 71 750 71 675 71.8C600 72.7 525 74.3 450 75.2C375 76 300 76 225 72.2C150 68.3 75 60.7 37.5 56.8L0 53Z" fill="#f0e0cd"></path><path d="M0 271L37.5 271C75 271 150 271 225 271.8C300 272.7 375 274.3 450 277.3C525 280.3 600 284.7 675 280.2C750 275.7 825 262.3 862.5 255.7L900 249L900 193L862.5 197.5C825 202 750 211 675 215.5C600 220 525 220 450 214.7C375 209.3 300 198.7 225 195.7C150 192.7 75 197.3 37.5 199.7L0 202Z" fill="#dec29d"></path><path d="M0 388L37.5 388C75 388 150 388 225 387.3C300 386.7 375 385.3 450 386.2C525 387 600 390 675 391.5C750 393 825 393 862.5 393L900 393L900 247L862.5 253.7C825 260.3 750 273.7 675 278.2C600 282.7 525 278.3 450 275.3C375 272.3 300 270.7 225 269.8C150 269 75 269 37.5 269L0 269Z" fill="#caa46e"></path><path d="M0 451L37.5 451C75 451 150 451 225 451C300 451 375 451 450 451C525 451 600 451 675 451C750 451 825 451 862.5 451L900 451L900 391L862.5 391C825 391 750 391 675 389.5C600 388 525 385 450 384.2C375 383.3 300 384.7 225 385.3C150 386 75 386 37.5 386L0 386Z" fill="#b48840"></path></svg>