<svg id="visual" viewBox="0 0 900 600" width="900" height="600" xmlns="http://www.w3.org/2000/svg" xmlns:xlink="http://www.w3.org/1999/xlink" version="1.1"><path d="M0 109L50 130C100 151 200 193 300 215C400 237 500 239 600 228C700 217 800 193 850 181L900 169L900 0L850 0C800 0 700 0 600 0C500 0 400 0 300 0C200 0 100 0 50 0L0 0Z" fill="#ffffff"></path><path d="M0 205L50 232C100 259 200 313 300 341C400 369 500 371 600 357C700 343 800 313 850 298L900 283L900 167L850 179C800 191 700 215 600 226C500 237 400 235 300 213C200 191 100 149 50 128L0 107Z" fill="#dcc8bb"></path><path d="M0 439L50 453C100 467 200 495 300 510C400 525 500 527 600 525C700 523 800 517 850 514L900 511L900 281L850 296C800 311 700 341 600 355C500 369 400 367 300 339C200 311 100 257 50 230L0 203Z" fill="#b8947a"></path><path d="M0 601L50 601C100 601 200 601 300 601C400 601 500 601 600 601C700 601 800 601 850 601L900 601L900 509L850 512C800 515 700 521 600 523C500 525 400 523 300 508C200 493 100 465 50 451L0 437Z" fill="#91633e"></path></svg>