<svg id="visual" viewBox="0 0 1200 540" width="1200" height="540" xmlns="http://www.w3.org/2000/svg" xmlns:xlink="http://www.w3.org/1999/xlink" version="1.1"><rect x="0" y="0" width="1200" height="540" fill="#ffffff"></rect><path d="M0 365L50 353.7C100 342.3 200 319.7 300 323.7C400 327.7 500 358.3 600 382.7C700 407 800 425 900 417.2C1000 409.3 1100 375.7 1150 358.8L1200 342L1200 541L1150 541C1100 541 1000 541 900 541C800 541 700 541 600 541C500 541 400 541 300 541C200 541 100 541 50 541L0 541Z" fill="#b9d1e5" stroke-linecap="round" stroke-linejoin="miter"></path></svg>