<svg id="visual" viewBox="0 0 900 600" width="900" height="600" xmlns="http://www.w3.org/2000/svg" xmlns:xlink="http://www.w3.org/1999/xlink" version="1.1"><path d="M0 286L37.5 282.5C75 279 150 272 225 257.7C300 243.3 375 221.7 450 221.3C525 221 600 242 675 256.7C750 271.3 825 279.7 862.5 283.8L900 288L900 601L862.5 601C825 601 750 601 675 601C600 601 525 601 450 601C375 601 300 601 225 601C150 601 75 601 37.5 601L0 601Z" fill="#20A9E3" stroke-linecap="round" stroke-linejoin="miter"></path></svg>